<svg width="126" height="76" fill="none" xmlns="http://www.w3.org/2000/svg"><path d="M.568 76h50.76l1.512-6.588H12.88l25.596-18.468c12.636-9.288 23.436-19.872 23.436-32.832 0-10.476-8.1-17.604-19.656-17.604-10.476 0-20.196 4.86-28.404 14.04l4.428 4.428c6.804-7.452 14.796-12.204 23.544-12.204 7.668 0 13.068 4.752 13.068 11.88 0 10.152-9.828 19.548-20.628 27.432L1.756 69.952.568 76zm63.281 0h50.76l1.512-6.588h-39.96l25.596-18.468c12.636-9.288 23.436-19.872 23.436-32.832 0-10.476-8.1-17.604-19.656-17.604-10.476 0-20.196 4.86-28.404 14.04l4.428 4.428c6.804-7.452 14.796-12.204 23.544-12.204 7.668 0 13.068 4.752 13.068 11.88 0 10.152-9.828 19.548-20.628 27.432L65.037 69.952 63.85 76z" fill="#363636"/></svg>