<svg width="1369" height="382" fill="none" xmlns="http://www.w3.org/2000/svg"><path d="M1364.66 209.462c-.15 3.522-2.68 7.07-7.88 10.568-5.17 3.479-12.79 6.766-22.64 9.812-19.69 6.086-48.08 11.135-83.12 14.908-70.07 7.544-166.57 9.971-272.875 5.482-106.309-4.488-202.259-15.039-271.443-28.463-34.6-6.713-62.462-14.137-81.569-21.861-9.559-3.865-16.868-7.782-21.728-11.685-4.886-3.923-7.106-7.672-6.958-11.195.149-3.522 2.677-7.07 7.877-10.568 5.171-3.479 12.785-6.766 22.636-9.811 19.689-6.087 48.078-11.136 83.12-14.909 70.07-7.544 166.568-9.97 272.877-5.482 106.313 4.488 202.263 15.039 271.443 28.463 34.6 6.713 62.46 14.137 81.57 21.861 9.56 3.865 16.87 7.782 21.73 11.685 4.88 3.924 7.1 7.673 6.96 11.195z" stroke="#8C64FF" stroke-width="2"/><path d="M34.816 102h9.856l24.576-74.88L93.696 102h9.856l30.08-87.936h-11.264l-24.32 71.168-23.296-71.168H63.616L40.32 85.232 16 14.064H4.736L34.816 102zm176.775-78.464v-9.472h-63.104V102h63.104v-9.472h-52.992V61.936h47.744v-9.472h-47.744V23.536h52.992zM337.414 102h10.88L309.51 14.064h-10.88L259.846 102h10.88l8.832-19.968h49.024L337.414 102zm-53.76-29.44l20.48-46.208 20.352 46.208h-40.832zm146.929-30.336c0-16.512-14.208-28.16-32.384-28.16h-35.712V102h9.984V70.384h23.296L418.039 102h11.392l-22.784-32.512c13.952-2.944 23.936-13.44 23.936-27.264zm-58.112-18.688h23.936c14.336 0 24.064 6.912 24.064 18.688s-9.728 18.688-24.064 18.688h-23.936V23.536zm136.37 0v-9.472h-63.104V102h63.104v-9.472h-52.992V61.936h47.744v-9.472h-47.744V23.536h52.992zm170.371 218c12.16 0 23.424-5.248 31.616-13.44l-6.784-6.912c-6.4 6.784-15.232 11.136-24.832 11.136-18.944 0-34.944-16.64-34.944-36.352 0-19.584 16-36.224 34.944-36.224 9.6 0 18.432 4.352 24.832 11.136l6.784-6.912c-8.192-8.32-19.456-13.44-31.616-13.44-24.32 0-45.056 20.736-45.056 45.44 0 24.704 20.736 45.568 45.056 45.568zm107.224-89.472v38.4h-51.84v-38.4h-9.984V240h9.984v-40.064h51.84V240h9.984v-87.936h-9.984zM888.164 240h10.88l-38.784-87.936h-10.88L810.596 240h10.88l8.832-19.968h49.024L888.164 240zm-53.76-29.44l20.48-46.208 20.352 46.208h-40.832zM915.157 240h9.984v-71.552L979.669 240h9.984v-87.936h-9.984v71.552l-54.528-71.552h-9.984V240zm137.153-36.864h25.22v20.992c-6.53 4.992-16 8.192-24.19 8.192-18.95 0-34.95-16.64-34.95-36.352 0-19.584 16-36.224 34.95-36.224 9.6 0 20.99 4.352 27.39 11.136l6.78-6.912c-8.19-8.32-22.01-13.44-34.17-13.44-24.32 0-45.06 20.736-45.06 45.44 0 24.704 20.74 45.568 45.06 45.568 12.16 0 25.98-5.248 34.17-13.44v-34.432h-35.2v9.472zm117.91-41.6v-9.472h-63.11V240h63.11v-9.472h-53v-30.592h47.75v-9.472h-47.75v-28.928h53zm85.24 18.688c0-16.512-14.21-28.16-32.39-28.16h-35.71V240h9.99v-31.616h23.29L1242.91 240h11.4l-22.79-32.512c13.95-2.944 23.94-13.44 23.94-27.264zm-58.11-18.688h23.93c14.34 0 24.07 6.912 24.07 18.688s-9.73 18.688-24.07 18.688h-23.93v-37.376zm103.73 79.872c20.48 0 30.97-11.392 30.97-25.344 0-15.488-12.03-21.504-28.8-25.472-14.97-3.584-23.68-6.784-23.68-15.872 0-8.064 7.94-15.232 18.82-15.232 9.21 0 17.92 4.224 25.21 11.264l6.15-7.808c-8.07-7.424-17.79-12.544-30.85-12.544-16.9 0-29.44 11.008-29.44 25.088 0 15.232 11.14 20.736 28.8 24.832 15.36 3.584 23.68 7.296 23.68 16.64 0 7.936-6.91 15.36-20.48 15.36-12.29 0-21.38-5.248-28.8-12.672l-6.27 7.808c8.83 8.704 20.22 13.952 34.69 13.952z" fill="#353535"/></svg>