<svg width="1328" height="501" fill="none" xmlns="http://www.w3.org/2000/svg"><path fill-rule="evenodd" clip-rule="evenodd" d="M776.155 91.048c3.562-3.398 5.283-6.769 5.423-10.089.14-3.32-1.29-6.824-4.553-10.51-3.271-3.695-8.269-7.432-14.927-11.134-13.308-7.4-32.85-14.442-57.267-20.714-48.8-12.535-116.647-21.895-191.955-25.074-75.308-3.18-143.702.428-193.386 8.806-24.858 4.191-44.924 9.56-58.809 15.812-6.946 3.128-12.241 6.431-15.811 9.836-3.563 3.398-5.283 6.77-5.424 10.09-.14 3.32 1.29 6.824 4.554 10.51 3.271 3.694 8.268 7.432 14.926 11.134 13.308 7.4 32.851 14.441 57.267 20.713 48.801 12.536 116.647 21.895 191.955 25.075 75.309 3.179 143.703-.428 193.386-8.806 24.858-4.191 44.925-9.56 58.809-15.812 6.946-3.128 12.241-6.431 15.812-9.837zm-268.091 36.453c150.809 6.367 274.16-14.433 275.512-46.458 1.352-32.025-119.807-63.147-270.616-69.514C362.151 5.162 238.8 25.96 237.448 57.986c-1.352 32.025 119.807 63.148 270.616 69.515z" fill="#8C64FF"/><path d="M30.816 114h9.856l24.576-74.88L89.696 114h9.856l30.08-87.936h-11.264l-24.32 71.168-23.296-71.168H59.616L36.32 97.232 12 26.064H.736L30.816 114zm176.775-78.464v-9.472h-63.104V114h63.104v-9.472h-52.992V73.936h47.744v-9.472h-47.744V35.536h52.992zm95.871 80c12.16 0 23.424-5.248 31.616-13.44l-6.784-6.912c-6.4 6.784-15.232 11.136-24.832 11.136-18.944 0-34.944-16.64-34.944-36.352 0-19.584 16-36.224 34.944-36.224 9.6 0 18.432 4.352 24.832 11.136l6.784-6.912c-8.192-8.32-19.456-13.44-31.616-13.44-24.32 0-45.056 20.736-45.056 45.44 0 24.704 20.736 45.568 45.056 45.568zm113.496-61.312c0-16.512-14.208-28.16-32.384-28.16h-35.712V114h9.984V82.384h23.296L404.414 114h11.392l-22.784-32.512c13.952-2.944 23.936-13.44 23.936-27.264zm-58.112-18.688h23.936c14.336 0 24.064 6.912 24.064 18.688s-9.728 18.688-24.064 18.688h-23.936V35.536zm136.37 0v-9.472h-63.104V114h63.104v-9.472h-52.992V73.936h47.744v-9.472h-47.744V35.536h52.992zM583.914 114h10.88L556.01 26.064h-10.88L506.346 114h10.88l8.832-19.968h49.024L583.914 114zm-53.76-29.44l20.48-46.208 20.352 46.208h-40.832zM626.328 114h9.984V35.536h29.568v-9.472h-69.12v9.472h29.568V114zm118.513-78.464v-9.472h-63.104V114h63.104v-9.472h-52.992V73.936h47.744v-9.472h-47.744V35.536h52.992z" fill="#353535"/><path d="M304.712 241.536c12.16 0 23.424-5.248 31.616-13.44l-6.784-6.912c-6.4 6.784-15.232 11.136-24.832 11.136-18.944 0-34.944-16.64-34.944-36.352 0-19.584 16-36.224 34.944-36.224 9.6 0 18.432 4.352 24.832 11.136l6.784-6.912c-8.192-8.32-19.456-13.44-31.616-13.44-24.32 0-45.056 20.736-45.056 45.44 0 24.704 20.736 45.568 45.056 45.568z" fill="url(#paint0_linear_215_693)" fill-opacity=".2"/><path d="M411.936 152.064v38.4h-51.84v-38.4h-9.984V240h9.984v-40.064h51.84V240h9.984v-87.936h-9.984z" fill="url(#paint1_linear_215_693)" fill-opacity=".2"/><path d="M513.664 240h10.88l-38.784-87.936h-10.88L436.096 240h10.88l8.832-19.968h49.024L513.664 240zm-53.76-29.44l20.48-46.208 20.352 46.208h-40.832z" fill="url(#paint2_linear_215_693)" fill-opacity=".2"/><path d="M540.657 240h9.984v-71.552L605.169 240h9.984v-87.936h-9.984v71.552l-54.528-71.552h-9.984V240z" fill="url(#paint3_linear_215_693)" fill-opacity=".2"/><path d="M677.813 203.136h25.216v20.992c-6.528 4.992-16 8.192-24.192 8.192-18.944 0-34.944-16.64-34.944-36.352 0-19.584 16-36.224 34.944-36.224 9.6 0 20.992 4.352 27.392 11.136l6.784-6.912c-8.192-8.32-22.016-13.44-34.176-13.44-24.32 0-45.056 20.736-45.056 45.44 0 24.704 20.736 45.568 45.056 45.568 12.16 0 25.984-5.248 34.176-13.44v-34.432h-35.2v9.472z" fill="url(#paint4_linear_215_693)" fill-opacity=".2"/><path d="M795.716 161.536v-9.472h-63.104V240h63.104v-9.472h-52.992v-30.592h47.744v-9.472h-47.744v-28.928h52.992z" fill="url(#paint5_linear_215_693)" fill-opacity=".2"/><path d="M265.032 369h29.696c27.904 0 47.616-18.304 47.616-44.032 0-25.728-19.712-43.904-47.616-43.904h-29.696V369zm9.984-9.088v-69.76h19.712c22.016 0 37.504 14.464 37.504 34.816 0 20.48-15.488 34.944-37.504 34.944h-19.712z" fill="url(#paint6_linear_215_693)" fill-opacity=".2"/><path d="M423.716 290.536v-9.472h-63.104V369h63.104v-9.472h-52.992v-30.592h47.744v-9.472h-47.744v-28.928h52.992z" fill="url(#paint7_linear_215_693)" fill-opacity=".2"/><path d="M471.326 370.408c20.48 0 30.976-11.392 30.976-25.344 0-15.488-12.032-21.504-28.8-25.472-14.976-3.584-23.68-6.784-23.68-15.872 0-8.064 7.936-15.232 18.816-15.232 9.216 0 17.92 4.224 25.216 11.264l6.144-7.808c-8.064-7.424-17.792-12.544-30.848-12.544-16.896 0-29.44 11.008-29.44 25.088 0 15.232 11.136 20.736 28.8 24.832 15.36 3.584 23.68 7.296 23.68 16.64 0 7.936-6.912 15.36-20.48 15.36-12.288 0-21.376-5.248-28.8-12.672l-6.272 7.808c8.832 8.704 20.224 13.952 34.688 13.952z" fill="url(#paint8_linear_215_693)" fill-opacity=".2"/><path d="M519.362 369h9.984v-87.936h-9.984V369z" fill="url(#paint9_linear_215_693)" fill-opacity=".2"/><path d="M590.188 332.136h25.216v20.992c-6.528 4.992-16 8.192-24.192 8.192-18.944 0-34.944-16.64-34.944-36.352 0-19.584 16-36.224 34.944-36.224 9.6 0 20.992 4.352 27.392 11.136l6.784-6.912c-8.192-8.32-22.016-13.44-34.176-13.44-24.32 0-45.056 20.736-45.056 45.44 0 24.704 20.736 45.568 45.056 45.568 12.16 0 25.984-5.248 34.176-13.44v-34.432h-35.2v9.472z" fill="url(#paint10_linear_215_693)" fill-opacity=".2"/><path d="M646.907 369h9.984v-71.552L711.419 369h9.984v-87.936h-9.984v71.552l-54.528-71.552h-9.984V369z" fill="url(#paint11_linear_215_693)" fill-opacity=".2"/><path d="M265.032 499h29.696c27.904 0 47.616-18.304 47.616-44.032 0-25.728-19.712-43.904-47.616-43.904h-29.696V499zm9.984-9.088v-69.76h19.712c22.016 0 37.504 14.464 37.504 34.816 0 20.48-15.488 34.944-37.504 34.944h-19.712z" fill="url(#paint12_linear_215_693)" fill-opacity=".2"/><path d="M423.716 420.536v-9.472h-63.104V499h63.104v-9.472h-52.992v-30.592h47.744v-9.472h-47.744v-28.928h52.992z" fill="url(#paint13_linear_215_693)" fill-opacity=".2"/><path d="M512.414 411.064l-33.28 75.648-33.408-75.648h-10.88L473.63 499h10.88l38.784-87.936h-10.88z" fill="url(#paint14_linear_215_693)" fill-opacity=".2"/><path d="M600.591 420.536v-9.472h-63.104V499h63.104v-9.472h-52.992v-30.592h47.744v-9.472h-47.744v-28.928h52.992z" fill="url(#paint15_linear_215_693)" fill-opacity=".2"/><path d="M626.313 489.528v-78.464h-9.984V499h57.984v-9.472h-48z" fill="url(#paint16_linear_215_693)" fill-opacity=".2"/><path d="M730.337 500.536c24.448 0 44.928-20.864 44.928-45.568 0-24.704-20.48-45.44-44.928-45.44-24.32 0-45.056 20.736-45.056 45.44 0 24.704 20.736 45.568 45.056 45.568zm0-9.216c-18.944 0-34.944-16.64-34.944-36.352 0-19.584 16-36.224 34.944-36.224 18.944 0 34.816 16.64 34.816 36.224 0 19.712-15.872 36.352-34.816 36.352z" fill="url(#paint17_linear_215_693)" fill-opacity=".2"/><path d="M791.987 499h9.984v-31.616h25.728c18.176 0 32.384-11.648 32.384-28.16s-14.208-28.16-32.384-28.16h-35.712V499zm9.984-41.088v-37.376h23.936c14.336 0 24.064 6.912 24.064 18.688s-9.728 18.688-24.064 18.688h-23.936z" fill="url(#paint18_linear_215_693)" fill-opacity=".2"/><path d="M714.816 252h9.856l24.576-74.88L773.696 252h9.856l30.08-87.936h-11.264l-24.32 71.168-23.296-71.168h-11.136l-23.296 71.168L696 164.064h-11.264L714.816 252zm176.775-78.464v-9.472h-63.104V252h63.104v-9.472h-52.992v-30.592h47.744v-9.472h-47.744v-28.928h52.992zM910.657 252h41.856c15.232 0 26.112-9.984 26.112-24.064 0-9.6-5.888-17.536-16-22.656 7.936-4.608 12.544-9.984 12.544-19.328 0-12.8-9.984-21.888-24.192-21.888h-40.32V252zm9.984-50.688v-28.16h27.776c9.728 0 16.64 5.888 16.64 14.08s-6.912 14.08-16.64 14.08h-27.776zm0 41.6V210.4h29.312c10.88 0 18.56 6.784 18.56 16.256 0 9.472-7.68 16.256-18.56 16.256h-29.312zm105.809 10.496c20.48 0 30.98-11.392 30.98-25.344 0-15.488-12.04-21.504-28.8-25.472-14.98-3.584-23.68-6.784-23.68-15.872 0-8.064 7.93-15.232 18.81-15.232 9.22 0 17.92 4.224 25.22 11.264l6.14-7.808c-8.06-7.424-17.79-12.544-30.84-12.544-16.9 0-29.445 11.008-29.445 25.088 0 15.232 11.135 20.736 28.805 24.832 15.36 3.584 23.67 7.296 23.67 16.64 0 7.936-6.91 15.36-20.48 15.36-12.28 0-21.37-5.248-28.795-12.672l-6.272 7.808c8.837 8.704 20.227 13.952 34.687 13.952zm48.04-1.408h9.98v-87.936h-9.98V252zm55.46 0h9.99v-78.464h29.57v-9.472h-69.12v9.472h29.56V252zm118.52-78.464v-9.472h-63.11V252h63.11v-9.472h-53v-30.592h47.75v-9.472h-47.75v-28.928h53zm47.61 79.872c20.48 0 30.97-11.392 30.97-25.344 0-15.488-12.03-21.504-28.8-25.472-14.97-3.584-23.68-6.784-23.68-15.872 0-8.064 7.94-15.232 18.82-15.232 9.21 0 17.92 4.224 25.21 11.264l6.15-7.808c-8.07-7.424-17.79-12.544-30.85-12.544-16.9 0-29.44 11.008-29.44 25.088 0 15.232 11.14 20.736 28.8 24.832 15.36 3.584 23.68 7.296 23.68 16.64 0 7.936-6.91 15.36-20.48 15.36-12.29 0-21.38-5.248-28.8-12.672l-6.27 7.808c8.83 8.704 20.22 13.952 34.69 13.952z" fill="#353535"/><defs><linearGradient id="paint0_linear_215_693" x1="268" y1="382" x2="828" y2="382" gradientUnits="userSpaceOnUse"><stop stop-color="#353535"/><stop offset="1" stop-color="#353535" stop-opacity="0"/></linearGradient><linearGradient id="paint1_linear_215_693" x1="268" y1="382" x2="828" y2="382" gradientUnits="userSpaceOnUse"><stop stop-color="#353535"/><stop offset="1" stop-color="#353535" stop-opacity="0"/></linearGradient><linearGradient id="paint2_linear_215_693" x1="268" y1="382" x2="828" y2="382" gradientUnits="userSpaceOnUse"><stop stop-color="#353535"/><stop offset="1" stop-color="#353535" stop-opacity="0"/></linearGradient><linearGradient id="paint3_linear_215_693" x1="268" y1="382" x2="828" y2="382" gradientUnits="userSpaceOnUse"><stop stop-color="#353535"/><stop offset="1" stop-color="#353535" stop-opacity="0"/></linearGradient><linearGradient id="paint4_linear_215_693" x1="268" y1="382" x2="828" y2="382" gradientUnits="userSpaceOnUse"><stop stop-color="#353535"/><stop offset="1" stop-color="#353535" stop-opacity="0"/></linearGradient><linearGradient id="paint5_linear_215_693" x1="268" y1="382" x2="828" y2="382" gradientUnits="userSpaceOnUse"><stop stop-color="#353535"/><stop offset="1" stop-color="#353535" stop-opacity="0"/></linearGradient><linearGradient id="paint6_linear_215_693" x1="268" y1="511" x2="764" y2="511" gradientUnits="userSpaceOnUse"><stop stop-color="#353535"/><stop offset="1" stop-color="#353535" stop-opacity="0"/></linearGradient><linearGradient id="paint7_linear_215_693" x1="268" y1="511" x2="764" y2="511" gradientUnits="userSpaceOnUse"><stop stop-color="#353535"/><stop offset="1" stop-color="#353535" stop-opacity="0"/></linearGradient><linearGradient id="paint8_linear_215_693" x1="268" y1="511" x2="764" y2="511" gradientUnits="userSpaceOnUse"><stop stop-color="#353535"/><stop offset="1" stop-color="#353535" stop-opacity="0"/></linearGradient><linearGradient id="paint9_linear_215_693" x1="268" y1="511" x2="764" y2="511" gradientUnits="userSpaceOnUse"><stop stop-color="#353535"/><stop offset="1" stop-color="#353535" stop-opacity="0"/></linearGradient><linearGradient id="paint10_linear_215_693" x1="268" y1="511" x2="764" y2="511" gradientUnits="userSpaceOnUse"><stop stop-color="#353535"/><stop offset="1" stop-color="#353535" stop-opacity="0"/></linearGradient><linearGradient id="paint11_linear_215_693" x1="268" y1="511" x2="764" y2="511" gradientUnits="userSpaceOnUse"><stop stop-color="#353535"/><stop offset="1" stop-color="#353535" stop-opacity="0"/></linearGradient><linearGradient id="paint12_linear_215_693" x1="268" y1="641" x2="860" y2="641" gradientUnits="userSpaceOnUse"><stop stop-color="#353535"/><stop offset="1" stop-color="#353535" stop-opacity="0"/></linearGradient><linearGradient id="paint13_linear_215_693" x1="268" y1="641" x2="860" y2="641" gradientUnits="userSpaceOnUse"><stop stop-color="#353535"/><stop offset="1" stop-color="#353535" stop-opacity="0"/></linearGradient><linearGradient id="paint14_linear_215_693" x1="268" y1="641" x2="860" y2="641" gradientUnits="userSpaceOnUse"><stop stop-color="#353535"/><stop offset="1" stop-color="#353535" stop-opacity="0"/></linearGradient><linearGradient id="paint15_linear_215_693" x1="268" y1="641" x2="860" y2="641" gradientUnits="userSpaceOnUse"><stop stop-color="#353535"/><stop offset="1" stop-color="#353535" stop-opacity="0"/></linearGradient><linearGradient id="paint16_linear_215_693" x1="268" y1="641" x2="860" y2="641" gradientUnits="userSpaceOnUse"><stop stop-color="#353535"/><stop offset="1" stop-color="#353535" stop-opacity="0"/></linearGradient><linearGradient id="paint17_linear_215_693" x1="268" y1="641" x2="860" y2="641" gradientUnits="userSpaceOnUse"><stop stop-color="#353535"/><stop offset="1" stop-color="#353535" stop-opacity="0"/></linearGradient><linearGradient id="paint18_linear_215_693" x1="268" y1="641" x2="860" y2="641" gradientUnits="userSpaceOnUse"><stop stop-color="#353535"/><stop offset="1" stop-color="#353535" stop-opacity="0"/></linearGradient></defs></svg>