<svg width="342" height="98" fill="none" xmlns="http://www.w3.org/2000/svg"><path d="M11.28 41h3.696l9.216-28.08L33.36 41h3.696l11.28-32.976h-4.224l-9.12 26.688-8.736-26.688H22.08l-8.736 26.688-9.12-26.688H0L11.28 41zm66.29-29.424V8.024H53.908V41H77.57v-3.552H57.699V25.976h17.904v-3.552H57.699V11.576H77.57zm35.952 30c4.56 0 8.784-1.968 11.856-5.04l-2.544-2.592c-2.4 2.544-5.712 4.176-9.312 4.176-7.104 0-13.104-6.24-13.104-13.632 0-7.344 6-13.584 13.104-13.584 3.6 0 6.912 1.632 9.312 4.176l2.544-2.592c-3.072-3.12-7.296-5.04-11.856-5.04-9.12 0-16.896 7.776-16.896 17.04s7.776 17.088 16.896 17.088zm42.561-22.992c0-6.192-5.328-10.56-12.144-10.56h-13.392V41h3.744V29.144h8.736L151.379 41h4.272l-8.544-12.192c5.232-1.104 8.976-5.04 8.976-10.224zm-21.792-7.008h8.976c5.376 0 9.024 2.592 9.024 7.008s-3.648 7.008-9.024 7.008h-8.976V11.576zm51.139 0V8.024h-23.664V41h23.664v-3.552h-19.872V25.976h17.904v-3.552h-17.904V11.576h19.872zM218.692 41h4.08L208.228 8.024h-4.08L189.604 41h4.08l3.312-7.488h18.384L218.692 41zm-20.16-11.04l7.68-17.328 7.632 17.328h-15.312zM234.597 41h3.744V11.576h11.088V8.024h-25.92v3.552h11.088V41zm44.442-29.424V8.024h-23.664V41h23.664v-3.552h-19.872V25.976h17.904v-3.552h-17.904V11.576h19.872zM112.03 97h3.696l9.216-28.08L134.11 97h3.696l11.28-32.976h-4.224l-9.12 26.688-8.736-26.688h-4.176l-8.736 26.688-9.12-26.688h-4.224L112.03 97zm66.291-29.424v-3.552h-23.664V97h23.664v-3.552h-19.872V81.976h17.904v-3.552h-17.904V67.576h19.872zM185.47 97h15.696c5.712 0 9.792-3.744 9.792-9.024 0-3.6-2.208-6.576-6-8.496 2.976-1.728 4.704-3.744 4.704-7.248 0-4.8-3.744-8.208-9.072-8.208h-15.12V97zm3.744-19.008v-10.56h10.416c3.648 0 6.24 2.208 6.24 5.28s-2.592 5.28-6.24 5.28h-10.416zm0 15.6V81.4h10.992c4.08 0 6.96 2.544 6.96 6.096s-2.88 6.096-6.96 6.096h-10.992zm39.679 3.936c7.68 0 11.616-4.272 11.616-9.504 0-5.808-4.512-8.064-10.8-9.552-5.616-1.344-8.88-2.544-8.88-5.952 0-3.024 2.976-5.712 7.056-5.712 3.456 0 6.72 1.584 9.456 4.224l2.304-2.928c-3.024-2.784-6.672-4.704-11.568-4.704-6.336 0-11.04 4.128-11.04 9.408 0 5.712 4.176 7.776 10.8 9.312 5.76 1.344 8.88 2.736 8.88 6.24 0 2.976-2.592 5.76-7.68 5.76-4.608 0-8.016-1.968-10.8-4.752l-2.352 2.928c3.312 3.264 7.584 5.232 13.008 5.232zM246.907 97h3.744V64.024h-3.744V97zm20.799 0h3.744V67.576h11.088v-3.552h-25.92v3.552h11.088V97zm44.443-29.424v-3.552h-23.664V97h23.664v-3.552h-19.872V81.976h17.904v-3.552h-17.904V67.576h19.872zm17.854 29.952c7.68 0 11.615-4.272 11.615-9.504 0-5.808-4.511-8.064-10.799-9.552-5.616-1.344-8.88-2.544-8.88-5.952 0-3.024 2.976-5.712 7.056-5.712 3.456 0 6.719 1.584 9.456 4.224l2.303-2.928c-3.024-2.784-6.672-4.704-11.568-4.704-6.336 0-11.04 4.128-11.04 9.408 0 5.712 4.177 7.776 10.801 9.312 5.76 1.344 8.88 2.736 8.88 6.24 0 2.976-2.592 5.76-7.68 5.76-4.608 0-8.017-1.968-10.801-4.752l-2.351 2.928c3.312 3.264 7.584 5.232 13.008 5.232z" fill="#353535"/><path d="M314.724 0l.476 6.998c.62 9.134 7.892 16.406 17.026 17.026l6.998.476-6.998.476c-9.134.62-16.406 7.892-17.026 17.026L314.724 49l-.476-6.998c-.62-9.134-7.892-16.406-17.026-17.026l-6.998-.476 6.998-.476c9.134-.62 16.406-7.892 17.026-17.026L314.724 0z" fill="#8C64FF"/></svg>