<svg width="1328" height="253" fill="none" xmlns="http://www.w3.org/2000/svg"><path d="M30.816 113h9.856l24.576-74.88L89.696 113h9.856l30.08-87.936h-11.264l-24.32 71.168-23.296-71.168H59.616L36.32 96.232 12 25.064H.736L30.816 113zm176.775-78.464v-9.472h-63.104V113h63.104v-9.472h-52.992V72.936h47.744v-9.472h-47.744V34.536h52.992zm95.871 80c12.16 0 23.424-5.248 31.616-13.44l-6.784-6.912c-6.4 6.784-15.232 11.136-24.832 11.136-18.944 0-34.944-16.64-34.944-36.352 0-19.584 16-36.224 34.944-36.224 9.6 0 18.432 4.352 24.832 11.136l6.784-6.912c-8.192-8.32-19.456-13.44-31.616-13.44-24.32 0-45.056 20.736-45.056 45.44 0 24.704 20.736 45.568 45.056 45.568zm113.496-61.312c0-16.512-14.208-28.16-32.384-28.16h-35.712V113h9.984V81.384h23.296L404.414 113h11.392l-22.784-32.512c13.952-2.944 23.936-13.44 23.936-27.264zm-58.112-18.688h23.936c14.336 0 24.064 6.912 24.064 18.688s-9.728 18.688-24.064 18.688h-23.936V34.536zm136.37 0v-9.472h-63.104V113h63.104v-9.472h-52.992V72.936h47.744v-9.472h-47.744V34.536h52.992zM583.914 113h10.88L556.01 25.064h-10.88L506.346 113h10.88l8.832-19.968h49.024L583.914 113zm-53.76-29.44l20.48-46.208 20.352 46.208h-40.832zM626.328 113h9.984V34.536h29.568v-9.472h-69.12v9.472h29.568V113zm118.513-78.464v-9.472h-63.104V113h63.104v-9.472h-52.992V72.936h47.744v-9.472h-47.744V34.536h52.992zM714.816 251h9.856l24.576-74.88L773.696 251h9.856l30.08-87.936h-11.264l-24.32 71.168-23.296-71.168h-11.136l-23.296 71.168L696 163.064h-11.264L714.816 251zm176.775-78.464v-9.472h-63.104V251h63.104v-9.472h-52.992v-30.592h47.744v-9.472h-47.744v-28.928h52.992zM910.657 251h41.856c15.232 0 26.112-9.984 26.112-24.064 0-9.6-5.888-17.536-16-22.656 7.936-4.608 12.544-9.984 12.544-19.328 0-12.8-9.984-21.888-24.192-21.888h-40.32V251zm9.984-50.688v-28.16h27.776c9.728 0 16.64 5.888 16.64 14.08s-6.912 14.08-16.64 14.08h-27.776zm0 41.6V209.4h29.312c10.88 0 18.56 6.784 18.56 16.256 0 9.472-7.68 16.256-18.56 16.256h-29.312zm105.809 10.496c20.48 0 30.98-11.392 30.98-25.344 0-15.488-12.03-21.504-28.8-25.472-14.98-3.584-23.68-6.784-23.68-15.872 0-8.064 7.93-15.232 18.81-15.232 9.22 0 17.92 4.224 25.22 11.264l6.14-7.808c-8.06-7.424-17.79-12.544-30.84-12.544-16.9 0-29.445 11.008-29.445 25.088 0 15.232 11.135 20.736 28.805 24.832 15.36 3.584 23.68 7.296 23.68 16.64 0 7.936-6.92 15.36-20.48 15.36-12.29 0-21.38-5.248-28.805-12.672l-6.272 7.808c8.837 8.704 20.227 13.952 34.687 13.952zm48.04-1.408h9.98v-87.936h-9.98V251zm55.46 0h9.99v-78.464h29.57v-9.472h-69.12v9.472h29.56V251zm118.52-78.464v-9.472h-63.11V251h63.11v-9.472h-53v-30.592h47.75v-9.472h-47.75v-28.928h53zm47.61 79.872c20.48 0 30.97-11.392 30.97-25.344 0-15.488-12.03-21.504-28.8-25.472-14.97-3.584-23.68-6.784-23.68-15.872 0-8.064 7.94-15.232 18.82-15.232 9.21 0 17.92 4.224 25.21 11.264l6.15-7.808c-8.07-7.424-17.79-12.544-30.85-12.544-16.9 0-29.44 11.008-29.44 25.088 0 15.232 11.14 20.736 28.8 24.832 15.36 3.584 23.68 7.296 23.68 16.64 0 7.936-6.91 15.36-20.48 15.36-12.29 0-21.38-5.248-28.8-12.672l-6.27 7.808c8.83 8.704 20.22 13.952 34.69 13.952z" fill="#353535"/><path d="M831 0l1.339 19.708c1.749 25.724 22.229 46.204 47.953 47.953L900 69l-19.708 1.34c-25.724 1.748-46.204 22.228-47.953 47.952L831 138l-1.339-19.708c-1.749-25.724-22.229-46.204-47.953-47.953L762 69l19.708-1.34c25.724-1.748 46.204-22.228 47.953-47.952L831 0z" fill="#8C64FF"/></svg>