<svg width="343" height="108" fill="none" xmlns="http://www.w3.org/2000/svg"><path fill-rule="evenodd" clip-rule="evenodd" d="M290.312 38.33c1.346-1.14 1.952-2.242 2.021-3.288.069-1.045-.387-2.217-1.572-3.524-1.185-1.309-3.026-2.665-5.513-4.034-4.967-2.737-12.304-5.416-21.506-7.877-18.388-4.917-44.02-8.906-72.529-10.789-28.51-1.883-54.444-1.298-73.318 1.158-9.446 1.229-17.071 2.92-22.356 4.98-2.645 1.03-4.648 2.133-5.996 3.274-1.346 1.14-1.952 2.242-2.021 3.287-.07 1.046.387 2.218 1.572 3.525 1.185 1.308 3.026 2.664 5.513 4.034 4.967 2.736 12.304 5.416 21.506 7.877 18.388 4.916 44.02 8.906 72.529 10.789 28.51 1.882 54.444 1.298 73.318-1.158 9.446-1.23 17.072-2.92 22.356-4.98 2.645-1.031 4.648-2.133 5.996-3.274zM188.576 48.74c57.109 3.77 104.009-2.332 104.755-13.632.746-11.3-44.944-23.517-102.052-27.288C134.171 4.05 87.27 10.152 86.524 21.451c-.746 11.3 44.944 23.517 102.052 27.288z" fill="#8C64FF"/><path d="M12.056 45h3.696l9.216-28.08L34.136 45h3.696l11.28-32.976h-4.224l-9.12 26.688-8.736-26.688h-4.176L14.12 38.712 5 12.024H.776L12.056 45zm66.291-29.424v-3.552H54.683V45h23.664v-3.552H58.475V29.976h17.904v-3.552H58.475V15.576h19.872zm35.951 30c4.56 0 8.784-1.968 11.856-5.04l-2.544-2.592c-2.4 2.544-5.712 4.176-9.312 4.176-7.104 0-13.104-6.24-13.104-13.632 0-7.344 6-13.584 13.104-13.584 3.6 0 6.912 1.632 9.312 4.176l2.544-2.592c-3.072-3.12-7.296-5.04-11.856-5.04-9.12 0-16.896 7.776-16.896 17.04s7.776 17.088 16.896 17.088zm42.561-22.992c0-6.192-5.328-10.56-12.144-10.56h-13.392V45h3.744V33.144h8.736L152.155 45h4.272l-8.544-12.192c5.232-1.104 8.976-5.04 8.976-10.224zm-21.792-7.008h8.976c5.376 0 9.024 2.592 9.024 7.008s-3.648 7.008-9.024 7.008h-8.976V15.576zm51.139 0v-3.552h-23.664V45h23.664v-3.552h-19.872V29.976h17.904v-3.552h-17.904V15.576h19.872zM219.468 45h4.08l-14.544-32.976h-4.08L190.38 45h4.08l3.312-7.488h18.384L219.468 45zm-20.16-11.04l7.68-17.328 7.632 17.328h-15.312zM235.373 45h3.744V15.576h11.088v-3.552h-25.92v3.552h11.088V45zm44.442-29.424v-3.552h-23.664V45h23.664v-3.552h-19.872V29.976h17.904v-3.552h-17.904V15.576h19.872zM112.806 107h3.696l9.216-28.08 9.168 28.08h3.696l11.28-32.976h-4.224l-9.12 26.688-8.736-26.688h-4.176l-8.736 26.688-9.12-26.688h-4.224L112.806 107zm66.291-29.424v-3.552h-23.664V107h23.664v-3.552h-19.872V91.976h17.904v-3.552h-17.904V77.576h19.872zM186.246 107h15.696c5.712 0 9.792-3.744 9.792-9.024 0-3.6-2.208-6.576-6-8.496 2.976-1.728 4.704-3.744 4.704-7.248 0-4.8-3.744-8.208-9.072-8.208h-15.12V107zm3.744-19.008v-10.56h10.416c3.648 0 6.24 2.208 6.24 5.28s-2.592 5.28-6.24 5.28H189.99zm0 15.6V91.4h10.992c4.08 0 6.96 2.544 6.96 6.096s-2.88 6.096-6.96 6.096H189.99zm39.679 3.936c7.68 0 11.616-4.272 11.616-9.504 0-5.808-4.512-8.064-10.8-9.552-5.616-1.344-8.88-2.544-8.88-5.952 0-3.024 2.976-5.712 7.056-5.712 3.456 0 6.72 1.584 9.456 4.224l2.304-2.928c-3.024-2.784-6.672-4.704-11.568-4.704-6.336 0-11.04 4.128-11.04 9.408 0 5.712 4.176 7.776 10.8 9.312 5.76 1.344 8.88 2.736 8.88 6.24 0 2.976-2.592 5.76-7.68 5.76-4.608 0-8.016-1.968-10.8-4.752l-2.352 2.928c3.312 3.264 7.584 5.232 13.008 5.232zm18.014-.528h3.744V74.024h-3.744V107zm20.799 0h3.744V77.576h11.088v-3.552h-25.92v3.552h11.088V107zm44.443-29.424v-3.552h-23.664V107h23.664v-3.552h-19.872V91.976h17.904v-3.552h-17.904V77.576h19.872zm17.854 29.952c7.68 0 11.616-4.272 11.616-9.504 0-5.808-4.512-8.064-10.8-9.552-5.616-1.344-8.88-2.544-8.88-5.952 0-3.024 2.976-5.712 7.056-5.712 3.456 0 6.72 1.584 9.456 4.224l2.303-2.928c-3.024-2.784-6.672-4.704-11.568-4.704-6.336 0-11.04 4.128-11.04 9.408 0 5.712 4.177 7.776 10.801 9.312 5.76 1.344 8.88 2.736 8.88 6.24 0 2.976-2.592 5.76-7.68 5.76-4.608 0-8.017-1.968-10.801-4.752l-2.351 2.928c3.312 3.264 7.584 5.232 13.008 5.232z" fill="#353535"/></svg>