<svg width="1362" height="385" fill="none" xmlns="http://www.w3.org/2000/svg"><path d="M1356.02 226.199c-.27 3.411-2.49 6.735-6.81 9.921-4.31 3.182-10.58 6.129-18.67 8.796-16.16 5.331-39.32 9.469-67.83 12.23-57.01 5.521-135.19 5.521-221.04-1.318-85.843-6.839-163.042-19.219-218.454-33.696-27.715-7.24-49.931-14.993-65.046-22.816-7.561-3.914-13.29-7.817-17.04-11.641-3.756-3.83-5.42-7.463-5.148-10.874.272-3.411 2.489-6.734 6.804-9.921 4.309-3.182 10.584-6.129 18.669-8.796 16.163-5.331 39.326-9.469 67.838-12.23 57.005-5.52 135.191-5.521 221.037 1.318 85.84 6.839 163.04 19.219 218.45 33.696 27.72 7.241 49.93 14.993 65.05 22.816 7.56 3.914 13.29 7.817 17.04 11.641 3.76 3.83 5.42 7.463 5.15 10.874z" stroke="#8C64FF" stroke-width="2"/><path d="M34.816 102h9.856l24.576-74.88L93.696 102h9.856l30.08-87.936h-11.264l-24.32 71.168-23.296-71.168H63.616L40.32 85.232 16 14.064H4.736L34.816 102zm176.775-78.464v-9.472h-63.104V102h63.104v-9.472h-52.992V61.936h47.744v-9.472h-47.744V23.536h52.992zm95.871 80c12.16 0 23.424-5.248 31.616-13.44l-6.784-6.912c-6.4 6.784-15.232 11.136-24.832 11.136-18.944 0-34.944-16.64-34.944-36.352 0-19.584 16-36.224 34.944-36.224 9.6 0 18.432 4.352 24.832 11.136l6.784-6.912c-8.192-8.32-19.456-13.44-31.616-13.44-24.32 0-45.056 20.736-45.056 45.44 0 24.704 20.736 45.568 45.056 45.568zm113.496-61.312c0-16.512-14.208-28.16-32.384-28.16h-35.712V102h9.984V70.384h23.296L408.414 102h11.392l-22.784-32.512c13.952-2.944 23.936-13.44 23.936-27.264zm-58.112-18.688h23.936c14.336 0 24.064 6.912 24.064 18.688s-9.728 18.688-24.064 18.688h-23.936V23.536zm136.37 0v-9.472h-63.104V102h63.104v-9.472h-52.992V61.936h47.744v-9.472h-47.744V23.536h52.992zM587.914 102h10.88L560.01 14.064h-10.88L510.346 102h10.88l8.832-19.968h49.024L587.914 102zm-53.76-29.44l20.48-46.208 20.352 46.208h-40.832zM630.328 102h9.984V23.536h29.568v-9.472h-69.12v9.472h29.568V102zm118.513-78.464v-9.472h-63.104V102h63.104v-9.472h-52.992V61.936h47.744v-9.472h-47.744V23.536h52.992zM381.135 243h10.496v-35.84l35.328-52.096h-12.032l-28.544 42.624-28.288-42.624h-12.416l35.456 52.096V243zm99.827 1.536c24.448 0 44.928-20.864 44.928-45.568 0-24.704-20.48-45.44-44.928-45.44-24.32 0-45.056 20.736-45.056 45.44 0 24.704 20.736 45.568 45.056 45.568zm0-9.216c-18.944 0-34.944-16.64-34.944-36.352 0-19.584 16-36.224 34.944-36.224 18.944 0 34.816 16.64 34.816 36.224 0 19.712-15.872 36.352-34.816 36.352zm99.282 9.216c21.504 0 36.736-15.744 36.736-38.016v-51.456h-9.984v51.456c0 16.896-11.136 28.928-26.752 28.928s-26.752-12.032-26.752-28.928v-51.456h-9.984v51.456c0 22.272 15.232 38.016 36.736 38.016zm125.964-61.312c0-16.512-14.208-28.16-32.384-28.16h-35.712V243h9.984v-31.616h23.296L693.664 243h11.392l-22.784-32.512c13.952-2.944 23.936-13.44 23.936-27.264zm-58.112-18.688h23.936c14.336 0 24.064 6.912 24.064 18.688s-9.728 18.688-24.064 18.688h-23.936v-37.376zm150.967 41.6h25.216v20.992c-6.528 4.992-16 8.192-24.192 8.192-18.944 0-34.944-16.64-34.944-36.352 0-19.584 16-36.224 34.944-36.224 9.6 0 20.992 4.352 27.392 11.136l6.784-6.912c-8.192-8.32-22.016-13.44-34.176-13.44-24.32 0-45.056 20.736-45.056 45.44 0 24.704 20.736 45.568 45.056 45.568 12.16 0 25.984-5.248 34.176-13.44v-34.432h-35.2v9.472zm122.895-22.912c0-16.512-14.208-28.16-32.384-28.16h-35.712V243h9.984v-31.616h23.296L909.414 243h11.392l-22.784-32.512c13.952-2.944 23.936-13.44 23.936-27.264zm-58.112-18.688h23.936c14.336 0 24.064 6.912 24.064 18.688s-9.728 18.688-24.064 18.688h-23.936v-37.376zm114.866 80c24.448 0 44.928-20.864 44.928-45.568 0-24.704-20.48-45.44-44.928-45.44-24.32 0-45.056 20.736-45.056 45.44 0 24.704 20.736 45.568 45.056 45.568zm0-9.216c-18.944 0-34.944-16.64-34.944-36.352 0-19.584 16-36.224 34.944-36.224 18.944 0 34.818 16.64 34.818 36.224 0 19.712-15.874 36.352-34.818 36.352zm83.108 7.68h9.85l24.58-74.88L1120.7 243h9.85l30.08-87.936h-11.26l-24.32 71.168-23.3-71.168h-11.13l-23.3 71.168-24.32-71.168h-11.26L1061.82 243zm138.88 0h9.99v-78.464h29.57v-9.472h-69.12v9.472h29.56V243zm117.24-87.936v38.4h-51.84v-38.4h-9.99V243h9.99v-40.064h51.84V243h9.98v-87.936h-9.98z" fill="#353535"/></svg>